<mxfile host="app.diagrams.net" modified="2023-09-15T16:05:09.878Z" agent="Mozilla/5.0 (Macintosh; Intel Mac OS X 10.15; rv:109.0) Gecko/20100101 Firefox/117.0" etag="0bl-9WCDXes-DKQSfiao" version="21.7.5" type="github">
  <diagram name="Página-1" id="0Dluf_XFcB_LQLOarRTd">
    <mxGraphModel dx="2562" dy="1122" grid="1" gridSize="10" guides="1" tooltips="1" connect="1" arrows="1" fold="1" page="1" pageScale="1" pageWidth="827" pageHeight="1169" math="0" shadow="0">
      <root>
        <mxCell id="0" />
        <mxCell id="1" parent="0" />
        <mxCell id="B2_AcDexy9MUjO7aQhDc-1" value="&lt;b&gt;MODELO ENTIDAD RELACIÓN&lt;br&gt;&lt;/b&gt;" style="text;html=1;align=left;verticalAlign=middle;resizable=0;points=[];autosize=1;strokeColor=none;fillColor=none;" vertex="1" parent="1">
          <mxGeometry x="-800" y="20" width="200" height="30" as="geometry" />
        </mxCell>
        <mxCell id="B2_AcDexy9MUjO7aQhDc-2" value="alberga" style="rhombus;whiteSpace=wrap;html=1;" vertex="1" parent="1">
          <mxGeometry x="-270" y="430" width="100" height="80" as="geometry" />
        </mxCell>
        <mxCell id="B2_AcDexy9MUjO7aQhDc-3" style="edgeStyle=none;rounded=0;orthogonalLoop=1;jettySize=auto;html=1;exitX=1;exitY=0.5;exitDx=0;exitDy=0;entryX=0;entryY=0.5;entryDx=0;entryDy=0;endArrow=none;endFill=0;" edge="1" parent="1" source="B2_AcDexy9MUjO7aQhDc-4" target="B2_AcDexy9MUjO7aQhDc-2">
          <mxGeometry relative="1" as="geometry" />
        </mxCell>
        <mxCell id="B2_AcDexy9MUjO7aQhDc-4" value="Estadio" style="rounded=1;whiteSpace=wrap;html=1;" vertex="1" parent="1">
          <mxGeometry x="-440" y="440" width="120" height="60" as="geometry" />
        </mxCell>
        <mxCell id="B2_AcDexy9MUjO7aQhDc-5" style="edgeStyle=none;rounded=0;orthogonalLoop=1;jettySize=auto;html=1;exitX=0;exitY=0.5;exitDx=0;exitDy=0;entryX=1;entryY=0.5;entryDx=0;entryDy=0;endArrow=none;endFill=0;" edge="1" parent="1" source="B2_AcDexy9MUjO7aQhDc-6" target="B2_AcDexy9MUjO7aQhDc-2">
          <mxGeometry relative="1" as="geometry" />
        </mxCell>
        <mxCell id="B2_AcDexy9MUjO7aQhDc-6" value="Partido" style="rounded=1;whiteSpace=wrap;html=1;" vertex="1" parent="1">
          <mxGeometry x="-120" y="440" width="120" height="60" as="geometry" />
        </mxCell>
        <mxCell id="B2_AcDexy9MUjO7aQhDc-7" value="N:1" style="text;html=1;align=center;verticalAlign=middle;resizable=0;points=[];autosize=1;strokeColor=none;fillColor=none;" vertex="1" parent="1">
          <mxGeometry x="-240" y="400" width="40" height="30" as="geometry" />
        </mxCell>
        <mxCell id="B2_AcDexy9MUjO7aQhDc-8" value="1" style="text;html=1;align=center;verticalAlign=middle;resizable=0;points=[];autosize=1;strokeColor=none;fillColor=none;" vertex="1" parent="1">
          <mxGeometry x="-320" y="440" width="30" height="30" as="geometry" />
        </mxCell>
        <mxCell id="B2_AcDexy9MUjO7aQhDc-9" value="1" style="text;html=1;align=center;verticalAlign=middle;resizable=0;points=[];autosize=1;strokeColor=none;fillColor=none;" vertex="1" parent="1">
          <mxGeometry x="-320" y="470" width="30" height="30" as="geometry" />
        </mxCell>
        <mxCell id="B2_AcDexy9MUjO7aQhDc-10" value="N" style="text;html=1;align=center;verticalAlign=middle;resizable=0;points=[];autosize=1;strokeColor=none;fillColor=none;" vertex="1" parent="1">
          <mxGeometry x="-150" y="440" width="30" height="30" as="geometry" />
        </mxCell>
        <mxCell id="B2_AcDexy9MUjO7aQhDc-11" value="1" style="text;html=1;align=center;verticalAlign=middle;resizable=0;points=[];autosize=1;strokeColor=none;fillColor=none;" vertex="1" parent="1">
          <mxGeometry x="-150" y="470" width="30" height="30" as="geometry" />
        </mxCell>
        <mxCell id="B2_AcDexy9MUjO7aQhDc-12" value="" style="rounded=1;whiteSpace=wrap;html=1;dashed=1;fillColor=none;" vertex="1" parent="1">
          <mxGeometry x="-460" y="380" width="480" height="160" as="geometry" />
        </mxCell>
        <mxCell id="B2_AcDexy9MUjO7aQhDc-13" style="rounded=0;orthogonalLoop=1;jettySize=auto;html=1;entryX=0.5;entryY=0;entryDx=0;entryDy=0;endArrow=none;endFill=0;" edge="1" parent="1">
          <mxGeometry relative="1" as="geometry">
            <mxPoint x="-410" y="380" as="targetPoint" />
            <mxPoint x="-409.9999999999998" y="339.99999999999955" as="sourcePoint" />
          </mxGeometry>
        </mxCell>
        <mxCell id="B2_AcDexy9MUjO7aQhDc-14" style="rounded=0;orthogonalLoop=1;jettySize=auto;html=1;entryX=0.5;entryY=0;entryDx=0;entryDy=0;endArrow=none;endFill=0;" edge="1" parent="1">
          <mxGeometry relative="1" as="geometry">
            <mxPoint x="-410" y="220" as="sourcePoint" />
            <mxPoint x="-410.0000000000002" y="260" as="targetPoint" />
          </mxGeometry>
        </mxCell>
        <mxCell id="B2_AcDexy9MUjO7aQhDc-15" value="&lt;div&gt;2&lt;/div&gt;&lt;div&gt;:&lt;/div&gt;&lt;div&gt;1&lt;br&gt;&lt;/div&gt;" style="text;html=1;align=center;verticalAlign=middle;resizable=0;points=[];autosize=1;strokeColor=none;fillColor=none;" vertex="1" parent="1">
          <mxGeometry x="-360" y="270" width="30" height="60" as="geometry" />
        </mxCell>
        <mxCell id="B2_AcDexy9MUjO7aQhDc-16" value="2" style="text;html=1;align=center;verticalAlign=middle;resizable=0;points=[];autosize=1;strokeColor=none;fillColor=none;" vertex="1" parent="1">
          <mxGeometry x="-410" y="220" width="30" height="30" as="geometry" />
        </mxCell>
        <mxCell id="B2_AcDexy9MUjO7aQhDc-17" value="1" style="text;html=1;align=center;verticalAlign=middle;resizable=0;points=[];autosize=1;strokeColor=none;fillColor=none;" vertex="1" parent="1">
          <mxGeometry x="-440" y="220" width="30" height="30" as="geometry" />
        </mxCell>
        <mxCell id="B2_AcDexy9MUjO7aQhDc-18" value="1" style="text;html=1;align=center;verticalAlign=middle;resizable=0;points=[];autosize=1;strokeColor=none;fillColor=none;" vertex="1" parent="1">
          <mxGeometry x="-410" y="350" width="30" height="30" as="geometry" />
        </mxCell>
        <mxCell id="B2_AcDexy9MUjO7aQhDc-19" value="1" style="text;html=1;align=center;verticalAlign=middle;resizable=0;points=[];autosize=1;strokeColor=none;fillColor=none;" vertex="1" parent="1">
          <mxGeometry x="-440" y="350" width="30" height="30" as="geometry" />
        </mxCell>
        <mxCell id="B2_AcDexy9MUjO7aQhDc-20" value="juega" style="rhombus;whiteSpace=wrap;html=1;" vertex="1" parent="1">
          <mxGeometry x="-460" y="260" width="100" height="80" as="geometry" />
        </mxCell>
        <mxCell id="B2_AcDexy9MUjO7aQhDc-21" value="" style="group" vertex="1" connectable="0" parent="1">
          <mxGeometry x="-620" y="60" width="480" height="160" as="geometry" />
        </mxCell>
        <mxCell id="B2_AcDexy9MUjO7aQhDc-22" value="" style="rounded=1;whiteSpace=wrap;html=1;dashed=1;fillColor=none;" vertex="1" parent="B2_AcDexy9MUjO7aQhDc-21">
          <mxGeometry width="480" height="160" as="geometry" />
        </mxCell>
        <mxCell id="B2_AcDexy9MUjO7aQhDc-23" value="pertenece" style="rhombus;whiteSpace=wrap;html=1;" vertex="1" parent="B2_AcDexy9MUjO7aQhDc-21">
          <mxGeometry x="190" y="50" width="100" height="80" as="geometry" />
        </mxCell>
        <mxCell id="B2_AcDexy9MUjO7aQhDc-24" style="edgeStyle=none;rounded=0;orthogonalLoop=1;jettySize=auto;html=1;exitX=1;exitY=0.5;exitDx=0;exitDy=0;entryX=0;entryY=0.5;entryDx=0;entryDy=0;endArrow=none;endFill=0;" edge="1" parent="B2_AcDexy9MUjO7aQhDc-21" source="B2_AcDexy9MUjO7aQhDc-25" target="B2_AcDexy9MUjO7aQhDc-23">
          <mxGeometry relative="1" as="geometry" />
        </mxCell>
        <mxCell id="B2_AcDexy9MUjO7aQhDc-25" value="Jugador" style="rounded=1;whiteSpace=wrap;html=1;" vertex="1" parent="B2_AcDexy9MUjO7aQhDc-21">
          <mxGeometry x="20" y="60" width="120" height="60" as="geometry" />
        </mxCell>
        <mxCell id="B2_AcDexy9MUjO7aQhDc-26" style="edgeStyle=none;rounded=0;orthogonalLoop=1;jettySize=auto;html=1;exitX=0;exitY=0.5;exitDx=0;exitDy=0;entryX=1;entryY=0.5;entryDx=0;entryDy=0;endArrow=none;endFill=0;" edge="1" parent="B2_AcDexy9MUjO7aQhDc-21" source="B2_AcDexy9MUjO7aQhDc-27" target="B2_AcDexy9MUjO7aQhDc-23">
          <mxGeometry relative="1" as="geometry" />
        </mxCell>
        <mxCell id="B2_AcDexy9MUjO7aQhDc-27" value="&lt;div&gt;Equipo&lt;/div&gt;" style="rounded=1;whiteSpace=wrap;html=1;strokeColor=default;gradientColor=none;shadow=0;" vertex="1" parent="B2_AcDexy9MUjO7aQhDc-21">
          <mxGeometry x="340" y="60" width="120" height="60" as="geometry" />
        </mxCell>
        <mxCell id="B2_AcDexy9MUjO7aQhDc-28" value="N:1" style="text;html=1;align=center;verticalAlign=middle;resizable=0;points=[];autosize=1;strokeColor=none;fillColor=none;" vertex="1" parent="B2_AcDexy9MUjO7aQhDc-21">
          <mxGeometry x="220" y="20" width="40" height="30" as="geometry" />
        </mxCell>
        <mxCell id="B2_AcDexy9MUjO7aQhDc-29" value="1" style="text;html=1;align=center;verticalAlign=middle;resizable=0;points=[];autosize=1;strokeColor=none;fillColor=none;" vertex="1" parent="B2_AcDexy9MUjO7aQhDc-21">
          <mxGeometry x="140" y="60" width="30" height="30" as="geometry" />
        </mxCell>
        <mxCell id="B2_AcDexy9MUjO7aQhDc-30" value="N" style="text;html=1;align=center;verticalAlign=middle;resizable=0;points=[];autosize=1;strokeColor=none;fillColor=none;" vertex="1" parent="B2_AcDexy9MUjO7aQhDc-21">
          <mxGeometry x="140" y="90" width="30" height="30" as="geometry" />
        </mxCell>
        <mxCell id="B2_AcDexy9MUjO7aQhDc-31" value="1" style="text;html=1;align=center;verticalAlign=middle;resizable=0;points=[];autosize=1;strokeColor=none;fillColor=none;" vertex="1" parent="B2_AcDexy9MUjO7aQhDc-21">
          <mxGeometry x="310" y="60" width="30" height="30" as="geometry" />
        </mxCell>
        <mxCell id="B2_AcDexy9MUjO7aQhDc-32" value="1" style="text;html=1;align=center;verticalAlign=middle;resizable=0;points=[];autosize=1;strokeColor=none;fillColor=none;" vertex="1" parent="B2_AcDexy9MUjO7aQhDc-21">
          <mxGeometry x="310" y="90" width="30" height="30" as="geometry" />
        </mxCell>
        <mxCell id="B2_AcDexy9MUjO7aQhDc-33" value="arbitra" style="rhombus;whiteSpace=wrap;html=1;" vertex="1" parent="1">
          <mxGeometry x="-610" y="360" width="100" height="80" as="geometry" />
        </mxCell>
        <mxCell id="B2_AcDexy9MUjO7aQhDc-34" style="edgeStyle=none;rounded=0;orthogonalLoop=1;jettySize=auto;html=1;exitX=1;exitY=0.5;exitDx=0;exitDy=0;entryX=0;entryY=0.5;entryDx=0;entryDy=0;endArrow=none;endFill=0;" edge="1" parent="1" source="B2_AcDexy9MUjO7aQhDc-35" target="B2_AcDexy9MUjO7aQhDc-33">
          <mxGeometry relative="1" as="geometry" />
        </mxCell>
        <mxCell id="B2_AcDexy9MUjO7aQhDc-35" value="Arbitro" style="rounded=1;whiteSpace=wrap;html=1;" vertex="1" parent="1">
          <mxGeometry x="-780" y="370" width="120" height="60" as="geometry" />
        </mxCell>
        <mxCell id="B2_AcDexy9MUjO7aQhDc-36" style="edgeStyle=none;rounded=0;orthogonalLoop=1;jettySize=auto;html=1;exitX=0;exitY=0.5;exitDx=0;exitDy=0;entryX=1;entryY=0.5;entryDx=0;entryDy=0;endArrow=none;endFill=0;" edge="1" parent="1" target="B2_AcDexy9MUjO7aQhDc-33">
          <mxGeometry relative="1" as="geometry">
            <mxPoint x="-460" y="400" as="sourcePoint" />
          </mxGeometry>
        </mxCell>
        <mxCell id="B2_AcDexy9MUjO7aQhDc-37" value="1:N" style="text;html=1;align=center;verticalAlign=middle;resizable=0;points=[];autosize=1;strokeColor=none;fillColor=none;" vertex="1" parent="1">
          <mxGeometry x="-580" y="330" width="40" height="30" as="geometry" />
        </mxCell>
        <mxCell id="B2_AcDexy9MUjO7aQhDc-38" value="1" style="text;html=1;align=center;verticalAlign=middle;resizable=0;points=[];autosize=1;strokeColor=none;fillColor=none;" vertex="1" parent="1">
          <mxGeometry x="-660" y="370" width="30" height="30" as="geometry" />
        </mxCell>
        <mxCell id="B2_AcDexy9MUjO7aQhDc-39" value="1" style="text;html=1;align=center;verticalAlign=middle;resizable=0;points=[];autosize=1;strokeColor=none;fillColor=none;" vertex="1" parent="1">
          <mxGeometry x="-660" y="400" width="30" height="30" as="geometry" />
        </mxCell>
        <mxCell id="B2_AcDexy9MUjO7aQhDc-40" value="N" style="text;html=1;align=center;verticalAlign=middle;resizable=0;points=[];autosize=1;strokeColor=none;fillColor=none;" vertex="1" parent="1">
          <mxGeometry x="-490" y="370" width="30" height="30" as="geometry" />
        </mxCell>
        <mxCell id="B2_AcDexy9MUjO7aQhDc-41" value="1" style="text;html=1;align=center;verticalAlign=middle;resizable=0;points=[];autosize=1;strokeColor=none;fillColor=none;" vertex="1" parent="1">
          <mxGeometry x="-490" y="400" width="30" height="30" as="geometry" />
        </mxCell>
        <mxCell id="B2_AcDexy9MUjO7aQhDc-42" value="comenta" style="rhombus;whiteSpace=wrap;html=1;" vertex="1" parent="1">
          <mxGeometry x="-610" y="480" width="100" height="80" as="geometry" />
        </mxCell>
        <mxCell id="B2_AcDexy9MUjO7aQhDc-43" style="edgeStyle=none;rounded=0;orthogonalLoop=1;jettySize=auto;html=1;exitX=1;exitY=0.5;exitDx=0;exitDy=0;entryX=0;entryY=0.5;entryDx=0;entryDy=0;endArrow=none;endFill=0;" edge="1" parent="1" source="B2_AcDexy9MUjO7aQhDc-44" target="B2_AcDexy9MUjO7aQhDc-42">
          <mxGeometry relative="1" as="geometry" />
        </mxCell>
        <mxCell id="B2_AcDexy9MUjO7aQhDc-44" value="Usuario" style="rounded=1;whiteSpace=wrap;html=1;" vertex="1" parent="1">
          <mxGeometry x="-780" y="490" width="120" height="60" as="geometry" />
        </mxCell>
        <mxCell id="B2_AcDexy9MUjO7aQhDc-45" style="edgeStyle=none;rounded=0;orthogonalLoop=1;jettySize=auto;html=1;exitX=0;exitY=0.5;exitDx=0;exitDy=0;entryX=1;entryY=0.5;entryDx=0;entryDy=0;endArrow=none;endFill=0;" edge="1" parent="1" target="B2_AcDexy9MUjO7aQhDc-42">
          <mxGeometry relative="1" as="geometry">
            <mxPoint x="-460" y="520" as="sourcePoint" />
          </mxGeometry>
        </mxCell>
        <mxCell id="B2_AcDexy9MUjO7aQhDc-46" value="N:1" style="text;html=1;align=center;verticalAlign=middle;resizable=0;points=[];autosize=1;strokeColor=none;fillColor=none;" vertex="1" parent="1">
          <mxGeometry x="-580" y="450" width="40" height="30" as="geometry" />
        </mxCell>
        <mxCell id="B2_AcDexy9MUjO7aQhDc-47" value="1" style="text;html=1;align=center;verticalAlign=middle;resizable=0;points=[];autosize=1;strokeColor=none;fillColor=none;" vertex="1" parent="1">
          <mxGeometry x="-660" y="490" width="30" height="30" as="geometry" />
        </mxCell>
        <mxCell id="B2_AcDexy9MUjO7aQhDc-48" value="2" style="text;html=1;align=center;verticalAlign=middle;resizable=0;points=[];autosize=1;strokeColor=none;fillColor=none;" vertex="1" parent="1">
          <mxGeometry x="-660" y="520" width="30" height="30" as="geometry" />
        </mxCell>
        <mxCell id="B2_AcDexy9MUjO7aQhDc-49" value="N" style="text;html=1;align=center;verticalAlign=middle;resizable=0;points=[];autosize=1;strokeColor=none;fillColor=none;" vertex="1" parent="1">
          <mxGeometry x="-490" y="490" width="30" height="30" as="geometry" />
        </mxCell>
        <mxCell id="B2_AcDexy9MUjO7aQhDc-50" value="1" style="text;html=1;align=center;verticalAlign=middle;resizable=0;points=[];autosize=1;strokeColor=none;fillColor=none;" vertex="1" parent="1">
          <mxGeometry x="-490" y="520" width="30" height="30" as="geometry" />
        </mxCell>
        <mxCell id="B2_AcDexy9MUjO7aQhDc-51" value="N" style="text;html=1;align=center;verticalAlign=middle;resizable=0;points=[];autosize=1;strokeColor=none;fillColor=none;" vertex="1" parent="1">
          <mxGeometry x="-400" y="540" width="30" height="30" as="geometry" />
        </mxCell>
        <mxCell id="B2_AcDexy9MUjO7aQhDc-52" value="1" style="text;html=1;align=center;verticalAlign=middle;resizable=0;points=[];autosize=1;strokeColor=none;fillColor=none;" vertex="1" parent="1">
          <mxGeometry x="-370" y="540" width="30" height="30" as="geometry" />
        </mxCell>
        <mxCell id="B2_AcDexy9MUjO7aQhDc-53" style="rounded=0;orthogonalLoop=1;jettySize=auto;html=1;entryX=0.5;entryY=0;entryDx=0;entryDy=0;endArrow=none;endFill=0;" edge="1" parent="1">
          <mxGeometry relative="1" as="geometry">
            <mxPoint x="-370" y="700" as="targetPoint" />
            <mxPoint x="-369.9999999999998" y="659.9999999999995" as="sourcePoint" />
          </mxGeometry>
        </mxCell>
        <mxCell id="B2_AcDexy9MUjO7aQhDc-54" style="rounded=0;orthogonalLoop=1;jettySize=auto;html=1;entryX=0.5;entryY=0;entryDx=0;entryDy=0;endArrow=none;endFill=0;" edge="1" parent="1">
          <mxGeometry relative="1" as="geometry">
            <mxPoint x="-370" y="540" as="sourcePoint" />
            <mxPoint x="-370.0000000000002" y="580" as="targetPoint" />
          </mxGeometry>
        </mxCell>
        <mxCell id="B2_AcDexy9MUjO7aQhDc-55" value="&lt;div&gt;N&lt;br&gt;&lt;/div&gt;&lt;div&gt;:&lt;/div&gt;&lt;div&gt;1&lt;br&gt;&lt;/div&gt;" style="text;html=1;align=center;verticalAlign=middle;resizable=0;points=[];autosize=1;strokeColor=none;fillColor=none;" vertex="1" parent="1">
          <mxGeometry x="-320" y="590" width="30" height="60" as="geometry" />
        </mxCell>
        <mxCell id="B2_AcDexy9MUjO7aQhDc-56" value="1" style="text;html=1;align=center;verticalAlign=middle;resizable=0;points=[];autosize=1;strokeColor=none;fillColor=none;" vertex="1" parent="1">
          <mxGeometry x="-370" y="670" width="30" height="30" as="geometry" />
        </mxCell>
        <mxCell id="B2_AcDexy9MUjO7aQhDc-57" value="1" style="text;html=1;align=center;verticalAlign=middle;resizable=0;points=[];autosize=1;strokeColor=none;fillColor=none;" vertex="1" parent="1">
          <mxGeometry x="-400" y="670" width="30" height="30" as="geometry" />
        </mxCell>
        <mxCell id="B2_AcDexy9MUjO7aQhDc-58" value="consiste" style="rhombus;whiteSpace=wrap;html=1;" vertex="1" parent="1">
          <mxGeometry x="-420" y="580" width="100" height="80" as="geometry" />
        </mxCell>
        <mxCell id="B2_AcDexy9MUjO7aQhDc-59" value="Torneo" style="shape=ext;double=1;rounded=1;whiteSpace=wrap;html=1;" vertex="1" parent="1">
          <mxGeometry x="-430" y="700" width="120" height="60" as="geometry" />
        </mxCell>
        <mxCell id="B2_AcDexy9MUjO7aQhDc-60" value="Canal" style="rounded=1;whiteSpace=wrap;html=1;" vertex="1" parent="1">
          <mxGeometry x="-230" y="700" width="120" height="60" as="geometry" />
        </mxCell>
        <mxCell id="B2_AcDexy9MUjO7aQhDc-61" value="transmite" style="rhombus;whiteSpace=wrap;html=1;" vertex="1" parent="1">
          <mxGeometry x="-220" y="580" width="100" height="80" as="geometry" />
        </mxCell>
        <mxCell id="B2_AcDexy9MUjO7aQhDc-62" value="N" style="text;html=1;align=center;verticalAlign=middle;resizable=0;points=[];autosize=1;strokeColor=none;fillColor=none;" vertex="1" parent="1">
          <mxGeometry x="-200" y="540" width="30" height="30" as="geometry" />
        </mxCell>
        <mxCell id="B2_AcDexy9MUjO7aQhDc-63" value="1" style="text;html=1;align=center;verticalAlign=middle;resizable=0;points=[];autosize=1;strokeColor=none;fillColor=none;" vertex="1" parent="1">
          <mxGeometry x="-170" y="540" width="30" height="30" as="geometry" />
        </mxCell>
        <mxCell id="B2_AcDexy9MUjO7aQhDc-64" style="rounded=0;orthogonalLoop=1;jettySize=auto;html=1;entryX=0.5;entryY=0;entryDx=0;entryDy=0;endArrow=none;endFill=0;" edge="1" parent="1">
          <mxGeometry relative="1" as="geometry">
            <mxPoint x="-170" y="700" as="targetPoint" />
            <mxPoint x="-169.99999999999977" y="659.9999999999995" as="sourcePoint" />
          </mxGeometry>
        </mxCell>
        <mxCell id="B2_AcDexy9MUjO7aQhDc-65" style="rounded=0;orthogonalLoop=1;jettySize=auto;html=1;entryX=0.5;entryY=0;entryDx=0;entryDy=0;endArrow=none;endFill=0;" edge="1" parent="1">
          <mxGeometry relative="1" as="geometry">
            <mxPoint x="-170" y="540" as="sourcePoint" />
            <mxPoint x="-170.00000000000023" y="580" as="targetPoint" />
          </mxGeometry>
        </mxCell>
        <mxCell id="B2_AcDexy9MUjO7aQhDc-66" value="&lt;div&gt;N&lt;br&gt;&lt;/div&gt;&lt;div&gt;:&lt;/div&gt;&lt;div&gt;1&lt;br&gt;&lt;/div&gt;" style="text;html=1;align=center;verticalAlign=middle;resizable=0;points=[];autosize=1;strokeColor=none;fillColor=none;" vertex="1" parent="1">
          <mxGeometry x="-120" y="590" width="30" height="60" as="geometry" />
        </mxCell>
        <mxCell id="B2_AcDexy9MUjO7aQhDc-67" value="1" style="text;html=1;align=center;verticalAlign=middle;resizable=0;points=[];autosize=1;strokeColor=none;fillColor=none;" vertex="1" parent="1">
          <mxGeometry x="-170" y="670" width="30" height="30" as="geometry" />
        </mxCell>
        <mxCell id="B2_AcDexy9MUjO7aQhDc-68" value="1" style="text;html=1;align=center;verticalAlign=middle;resizable=0;points=[];autosize=1;strokeColor=none;fillColor=none;" vertex="1" parent="1">
          <mxGeometry x="-200" y="670" width="30" height="30" as="geometry" />
        </mxCell>
        <mxCell id="B2_AcDexy9MUjO7aQhDc-69" value="tiene" style="rhombus;whiteSpace=wrap;html=1;" vertex="1" parent="1">
          <mxGeometry x="70" y="420" width="100" height="80" as="geometry" />
        </mxCell>
        <mxCell id="B2_AcDexy9MUjO7aQhDc-70" style="edgeStyle=none;rounded=0;orthogonalLoop=1;jettySize=auto;html=1;exitX=1;exitY=0.5;exitDx=0;exitDy=0;entryX=0;entryY=0.5;entryDx=0;entryDy=0;endArrow=none;endFill=0;" edge="1" parent="1" target="B2_AcDexy9MUjO7aQhDc-69">
          <mxGeometry relative="1" as="geometry">
            <mxPoint x="20" y="460" as="sourcePoint" />
          </mxGeometry>
        </mxCell>
        <mxCell id="B2_AcDexy9MUjO7aQhDc-71" style="edgeStyle=none;rounded=0;orthogonalLoop=1;jettySize=auto;html=1;exitX=0;exitY=0.5;exitDx=0;exitDy=0;entryX=1;entryY=0.5;entryDx=0;entryDy=0;endArrow=none;endFill=0;" edge="1" parent="1" source="B2_AcDexy9MUjO7aQhDc-72" target="B2_AcDexy9MUjO7aQhDc-69">
          <mxGeometry relative="1" as="geometry" />
        </mxCell>
        <mxCell id="B2_AcDexy9MUjO7aQhDc-72" value="Comentarios" style="rounded=1;whiteSpace=wrap;html=1;" vertex="1" parent="1">
          <mxGeometry x="220" y="430" width="120" height="60" as="geometry" />
        </mxCell>
        <mxCell id="B2_AcDexy9MUjO7aQhDc-73" value="N:1" style="text;html=1;align=center;verticalAlign=middle;resizable=0;points=[];autosize=1;strokeColor=none;fillColor=none;" vertex="1" parent="1">
          <mxGeometry x="100" y="390" width="40" height="30" as="geometry" />
        </mxCell>
        <mxCell id="B2_AcDexy9MUjO7aQhDc-74" value="1" style="text;html=1;align=center;verticalAlign=middle;resizable=0;points=[];autosize=1;strokeColor=none;fillColor=none;" vertex="1" parent="1">
          <mxGeometry x="20" y="430" width="30" height="30" as="geometry" />
        </mxCell>
        <mxCell id="B2_AcDexy9MUjO7aQhDc-75" value="2" style="text;html=1;align=center;verticalAlign=middle;resizable=0;points=[];autosize=1;strokeColor=none;fillColor=none;" vertex="1" parent="1">
          <mxGeometry x="20" y="460" width="30" height="30" as="geometry" />
        </mxCell>
        <mxCell id="B2_AcDexy9MUjO7aQhDc-76" value="1" style="text;html=1;align=center;verticalAlign=middle;resizable=0;points=[];autosize=1;strokeColor=none;fillColor=none;" vertex="1" parent="1">
          <mxGeometry x="190" y="430" width="30" height="30" as="geometry" />
        </mxCell>
        <mxCell id="B2_AcDexy9MUjO7aQhDc-77" value="1" style="text;html=1;align=center;verticalAlign=middle;resizable=0;points=[];autosize=1;strokeColor=none;fillColor=none;" vertex="1" parent="1">
          <mxGeometry x="190" y="460" width="30" height="30" as="geometry" />
        </mxCell>
      </root>
    </mxGraphModel>
  </diagram>
</mxfile>
